<?xml version="1.0" ?><svg viewBox="0 0 128 128" xmlns="http://www.w3.org/2000/svg"><defs><style>.cls-1{fill:#c3edf5;}.cls-2{fill:#87dbec;}.cls-3{fill:#4d91bb;}.cls-4{fill:#2175aa;}.cls-5{fill:#fff;}</style></defs><title/><g data-name="18 Retina Ready Web Design" id="_18_Retina_Ready_Web_Design"><path class="cls-1" d="M64,34A48,48,0,0,0,19.5,64a48,48,0,0,0,89,0A48,48,0,0,0,64,34Z"/><circle class="cls-2" cx="67.7" cy="64" r="15"/><circle class="cls-3" cx="64" cy="64" r="15"/><path class="cls-4" d="M78,58.78a15,15,0,0,0-5.71-7.25A5,5,0,0,0,71.67,54a5,5,0,0,0,5,5A5,5,0,0,0,78,58.78Z"/><circle class="cls-5" cx="74" cy="54" r="5"/></g></svg>