<?xml version="1.0" ?><svg viewBox="0 0 128 128" xmlns="http://www.w3.org/2000/svg"><defs><style>.cls-1{fill:#c3edf5;}.cls-2{fill:#4d91bb;}.cls-3{fill:#87dbec;}.cls-4{fill:#4dbab4;}.cls-5{fill:#e88f8d;}.cls-6{fill:#ffda75;}.cls-7{fill:#c2e085;}</style></defs><title/><g data-name="02 Website Optimization" id="_02_Website_Optimization"><rect class="cls-1" height="90" width="90" x="19" y="19"/><rect class="cls-2" height="20" width="90" x="19" y="19"/><path class="cls-3" d="M56.32,109a11.92,11.92,0,0,1,23.84,0H109v-8L98.43,98.5l-6-10.4,3.14-10.39-13.89-8L74.24,77.6h-12L54.8,69.69l-13.89,8L44,88.1,38,98.5,27.47,101v8Z"/><path class="cls-4" d="M52.08,109a11.92,11.92,0,0,1,23.84,0h28.85v-8L94.2,98.5l-6-10.4,3.14-10.39-13.89-8L70,77.6H58l-7.43-7.91-13.89,8L39.81,88.1l-6,10.4L23.24,101v8Z"/><circle class="cls-5" cx="26.24" cy="29" r="3"/><circle class="cls-6" cx="35.24" cy="29" r="3"/><circle class="cls-7" cx="44.24" cy="29" r="3"/><polygon class="cls-3" points="19 39 109 43.5 109 39 19 39"/></g></svg>