<?xml version="1.0" encoding="UTF-8" standalone="no"?>
<svg
   xmlns:dc="http://purl.org/dc/elements/1.1/"
   xmlns:cc="http://creativecommons.org/ns#"
   xmlns:rdf="http://www.w3.org/1999/02/22-rdf-syntax-ns#"
   xmlns:svg="http://www.w3.org/2000/svg"
   xmlns="http://www.w3.org/2000/svg"
   xmlns:sodipodi="http://sodipodi.sourceforge.net/DTD/sodipodi-0.dtd"
   xmlns:inkscape="http://www.inkscape.org/namespaces/inkscape"
   role="img"
   viewBox="0 0 100 100"
   version="1.1"
   id="svg6"
   sodipodi:docname="linux.svg"
   width="100"
   height="100"
   inkscape:version="0.92.3 (2405546, 2018-03-11)">
  <metadata
     id="metadata12">
    <rdf:RDF>
      <cc:Work
         rdf:about="">
        <dc:format>image/svg+xml</dc:format>
        <dc:type
           rdf:resource="http://purl.org/dc/dcmitype/StillImage" />
        <dc:title></dc:title>
      </cc:Work>
    </rdf:RDF>
  </metadata>
  <defs
     id="defs10" />
  <sodipodi:namedview
     pagecolor="#ffffff"
     bordercolor="#666666"
     borderopacity="1"
     objecttolerance="10"
     gridtolerance="10"
     guidetolerance="10"
     inkscape:pageopacity="0"
     inkscape:pageshadow="2"
     inkscape:window-width="1853"
     inkscape:window-height="1025"
     id="namedview8"
     showgrid="false"
     inkscape:zoom="4.9166667"
     inkscape:cx="-33.175977"
     inkscape:cy="31.213326"
     inkscape:window-x="67"
     inkscape:window-y="27"
     inkscape:window-maximized="1"
     inkscape:current-layer="svg6" />
  <g
     id="g31"
     transform="matrix(4.1663679,0,0,4.1663679,0.00619094,-316.64396)">
    <g
       transform="translate(0,76)"
       id="g24">
      <path
         style="fill:#ffcc00;stroke:none;stroke-width:1px;stroke-linecap:butt;stroke-linejoin:miter;stroke-opacity:1"
         d="m 15.370584,18.139403 -0.01798,1.114592 -0.323592,1.312342 -0.287636,1.402229 0.215727,1.150547 0.880887,0.611228 1.006729,0.05393 1.294365,-0.629206 1.168524,-1.06066 1.887615,-1.114592 0.575273,-0.593251 -0.179772,-0.755046 -0.647183,-0.86291 -0.3955,-1.240433 L 20.334,16.884 19.481,16.604 17.060449,16.50347 16.426,16.271 l -0.462166,0.142583 -0.431455,1.06066 z"
         id="path18"
         inkscape:connector-curvature="0" />
      <path
         style="fill:#ffcc00;stroke:none;stroke-width:1px;stroke-linecap:butt;stroke-linejoin:miter;stroke-opacity:1"
         d="m 3.6228814,22.347458 2.0084745,0.406779 1.5127119,0.661017 1.4237288,0.114407 L 9.761,22.722 9.838983,21.34322 8.7711864,19.970339 l -1.7923729,-3 -1.029661,-0.95339 -0.8898306,0.317797 -0.5974576,0.635593 -0.4322034,0.533898 -0.9661017,0.508475 -0.6101695,0.470339 -0.076271,0.699152 0.1652543,1.004238 -0.2033898,0.991525 0.012712,0.788136 0.6991526,0.483051 z"
         id="path16"
         inkscape:connector-curvature="0" />
      <path
         style="fill:#ffcc00;stroke:none;stroke-width:1px;stroke-linecap:butt;stroke-linejoin:miter;stroke-opacity:1"
         d="m 9.2542373,7.0805084 0.9470337,0.9025424 0.718221,0.4639831 0.794491,0.076271 L 12.61017,8.1991525 13.836864,7.5381356 14.434322,6.9088983 14.262712,6.1652542 13.46822,5.7838983 12.266949,5.2817796 11.574153,5.0974576 10.868644,5.1864406 10.315678,5.529661 9.8834746,5.9618644 9.1843221,6.4766949 9.1144068,6.9851695 Z"
         id="path14"
         inkscape:connector-curvature="0" />
      <path
         inkscape:connector-curvature="0"
         d="M 12.503,0 C 12.348,0 12.188,0.008 12.024,0.021 7.797,0.354 8.918,4.828 8.854,6.319 8.777,7.412 8.554,8.273 7.803,9.34 6.918,10.391 5.676,12.09 5.087,13.861 4.809,14.693 4.677,15.545 4.8,16.35 c -0.039,0.034 -0.076,0.068 -0.111,0.135 -0.26,0.268 -0.449,0.601 -0.662,0.839 -0.199,0.199 -0.485,0.267 -0.797,0.4 -0.313,0.136 -0.658,0.269 -0.864,0.681 -0.09,0.188 -0.136,0.393 -0.132,0.601 0,0.199 0.027,0.401 0.055,0.536 0.058,0.399 0.116,0.729 0.039,0.97 -0.248,0.68 -0.279,1.146 -0.105,1.485 0.174,0.334 0.535,0.469 0.939,0.601 0.811,0.2 1.91,0.135 2.775,0.599 0.926,0.467 1.866,0.671 2.616,0.47 0.526,-0.115 0.97,-0.463 1.208,-0.945 0.587,-0.003 1.23,-0.269 2.26,-0.334 0.699,-0.058 1.574,0.267 2.578,0.199 0.025,0.135 0.063,0.199 0.114,0.334 l 0.003,0.003 c 0.391,0.778 1.113,1.132 1.884,1.071 0.771,-0.06 1.592,-0.536 2.257,-1.306 0.631,-0.765 1.683,-1.084 2.378,-1.503 0.348,-0.199 0.629,-0.469 0.649,-0.853 0.023,-0.4 -0.199,-0.812 -0.714,-1.377 v -0.097 l -0.003,-0.003 c -0.17,-0.2 -0.25,-0.535 -0.338,-0.926 -0.085,-0.401 -0.182,-0.786 -0.492,-1.046 H 20.334 C 20.275,16.83 20.211,16.817 20.146,16.749 20.09,16.711 20.025,16.687 19.956,16.685 20.387,15.407 20.22,14.135 19.783,12.991 19.25,11.581 18.318,10.353 17.608,9.508 16.812,8.503 16.032,7.551 16.047,6.139 16.074,3.987 16.284,0.006 12.503,0 Z m 0.529,3.405 h 0.013 c 0.213,0 0.396,0.062 0.584,0.198 0.191,0.135 0.33,0.332 0.439,0.533 0.105,0.259 0.158,0.459 0.166,0.724 0,-0.02 0.006,-0.04 0.006,-0.059 V 4.905 C 14.238,4.898 14.236,4.89 14.236,4.884 L 14.232,4.86 C 14.23,5.103 14.179,5.343 14.082,5.566 14.035,5.691 13.963,5.806 13.869,5.901 13.84,5.885 13.812,5.871 13.781,5.859 13.676,5.814 13.582,5.795 13.496,5.726 13.425,5.698 13.351,5.675 13.277,5.66 13.326,5.601 13.422,5.527 13.459,5.462 13.512,5.334 13.541,5.198 13.547,5.06 V 5.041 C 13.549,4.906 13.529,4.77 13.486,4.641 13.441,4.506 13.385,4.44 13.303,4.307 13.219,4.241 13.136,4.175 13.036,4.175 H 13.02 c -0.093,0 -0.176,0.03 -0.262,0.132 -0.095,0.094 -0.166,0.207 -0.205,0.334 -0.053,0.127 -0.084,0.264 -0.09,0.4 V 5.06 c 0.002,0.089 0.008,0.179 0.02,0.267 C 12.29,5.26 12.045,5.192 11.876,5.125 11.866,5.06 11.86,4.993 11.858,4.926 V 4.906 C 11.85,4.642 11.901,4.38 12.008,4.137 12.09,3.918 12.24,3.731 12.438,3.604 12.609,3.475 12.817,3.405 13.032,3.405 Z M 10.07,3.464 h 0.036 c 0.142,0 0.27,0.048 0.399,0.135 0.146,0.129 0.264,0.288 0.344,0.465 0.09,0.199 0.141,0.401 0.153,0.667 V 4.735 C 11.009,4.869 11.008,4.936 11,5.001 v 0.08 C 10.97,5.088 10.944,5.099 10.917,5.105 10.765,5.16 10.643,5.24 10.524,5.305 10.536,5.216 10.537,5.126 10.527,5.038 V 5.023 C 10.515,4.89 10.488,4.824 10.445,4.69 10.414,4.588 10.357,4.497 10.279,4.423 10.23,4.378 10.164,4.355 10.096,4.359 H 10.075 C 10.004,4.365 9.945,4.4 9.889,4.491 9.825,4.568 9.784,4.662 9.769,4.761 9.742,4.869 9.734,4.98 9.746,5.092 v 0.014 c 0.012,0.135 0.037,0.201 0.081,0.334 0.045,0.134 0.097,0.2 0.165,0.268 0.011,0.009 0.021,0.018 0.034,0.024 C 9.956,5.789 9.909,5.802 9.85,5.868 9.813,5.896 9.77,5.928 9.719,5.936 9.615,5.811 9.523,5.676 9.444,5.534 9.348,5.324 9.298,5.096 9.289,4.867 9.272,4.641 9.3,4.415 9.369,4.199 9.424,4.002 9.521,3.82 9.652,3.664 9.78,3.531 9.912,3.464 10.07,3.464 Z m 1.371,1.706 c 0.331,0 0.732,0.065 1.215,0.399 0.293,0.2 0.523,0.269 1.053,0.468 h 0.003 c 0.255,0.136 0.405,0.266 0.478,0.399 V 6.305 c 0.073,0.147 0.078,0.318 0.016,0.47 -0.123,0.311 -0.516,0.644 -1.064,0.843 V 7.62 C 12.874,7.755 12.641,7.953 12.367,8.085 12.091,8.22 11.779,8.377 11.355,8.352 11.203,8.36 11.05,8.337 10.907,8.285 10.797,8.225 10.689,8.159 10.585,8.087 10.39,7.952 10.222,7.755 9.973,7.622 V 7.617 H 9.968 C 9.568,7.371 9.352,7.105 9.282,6.906 9.213,6.638 9.277,6.437 9.475,6.306 9.699,6.171 9.855,6.035 9.958,5.97 10.062,5.896 10.101,5.868 10.134,5.839 h 0.002 V 5.836 C 10.305,5.634 10.572,5.367 10.975,5.235 11.114,5.199 11.269,5.17 11.441,5.17 Z m 2.799,2.143 c 0.359,1.417 1.197,3.475 1.736,4.473 0.286,0.534 0.855,1.659 1.102,3.024 0.156,-0.005 0.329,0.018 0.513,0.064 0.646,-1.671 -0.546,-3.467 -1.089,-3.966 -0.221,-0.201 -0.232,-0.335 -0.123,-0.335 0.589,0.534 1.365,1.572 1.646,2.757 0.129,0.535 0.159,1.104 0.021,1.67 0.067,0.028 0.135,0.061 0.205,0.067 1.032,0.534 1.413,0.938 1.23,1.537 v -0.043 c -0.061,-0.003 -0.12,0 -0.181,0 h -0.015 c 0.151,-0.467 -0.182,-0.825 -1.065,-1.224 -0.915,-0.4 -1.646,-0.336 -1.771,0.465 -0.007,0.043 -0.012,0.066 -0.017,0.135 -0.068,0.023 -0.139,0.053 -0.209,0.064 -0.43,0.268 -0.662,0.669 -0.793,1.187 -0.13,0.533 -0.17,1.156 -0.205,1.869 v 0.003 c -0.021,0.334 -0.171,0.838 -0.319,1.351 -1.5,1.072 -3.58,1.538 -5.349,0.334 C 9.446,20.552 9.311,20.371 9.155,20.212 9.081,20.087 8.987,19.975 8.88,19.878 c 0.182,0 0.338,-0.029 0.465,-0.067 C 9.49,19.744 9.602,19.623 9.659,19.477 9.767,19.21 9.659,18.78 9.314,18.314 8.969,17.847 8.383,17.319 7.526,16.793 6.896,16.394 6.54,15.923 6.376,15.397 6.211,14.863 6.233,14.312 6.361,13.752 c 0.245,-1.07 0.873,-2.11 1.274,-2.763 0.107,-0.065 0.037,0.135 -0.408,0.974 -0.396,0.751 -1.141,2.497 -0.122,3.854 0.038,-0.989 0.258,-1.965 0.647,-2.876 0.564,-1.278 1.743,-3.504 1.836,-5.268 0.048,0.036 0.217,0.135 0.289,0.202 0.218,0.133 0.38,0.333 0.59,0.465 0.211,0.201 0.477,0.335 0.876,0.335 0.039,0.003 0.075,0.006 0.111,0.006 0.411,0 0.729,-0.134 0.996,-0.268 0.29,-0.134 0.521,-0.334 0.74,-0.4 h 0.005 c 0.467,-0.135 0.836,-0.402 1.045,-0.7 z m 2.186,8.958 c 0.037,0.601 0.343,1.245 0.882,1.377 0.588,0.134 1.434,-0.333 1.791,-0.765 l 0.211,-0.009 c 0.315,-0.008 0.577,0.01 0.847,0.267 l 0.003,0.003 c 0.208,0.199 0.305,0.531 0.391,0.876 0.085,0.401 0.154,0.78 0.409,1.066 0.486,0.527 0.645,0.906 0.636,1.14 l 0.003,-0.006 v 0.018 l -0.003,-0.012 c -0.015,0.262 -0.185,0.396 -0.498,0.595 -0.63,0.401 -1.746,0.712 -2.457,1.57 -0.618,0.737 -1.371,1.139 -2.036,1.191 -0.664,0.053 -1.237,-0.2 -1.574,-0.898 l -0.005,-0.003 c -0.21,-0.401 -0.12,-1.025 0.056,-1.69 0.176,-0.668 0.428,-1.345 0.463,-1.898 0.037,-0.714 0.076,-1.335 0.195,-1.814 0.12,-0.465 0.308,-0.797 0.641,-0.984 l 0.045,-0.022 z M 5.611,16.32 h 0.01 c 0.053,0 0.105,0.005 0.157,0.014 0.376,0.055 0.706,0.333 1.023,0.752 l 0.91,1.664 0.003,0.003 c 0.243,0.533 0.754,1.064 1.189,1.638 0.434,0.598 0.77,1.131 0.729,1.57 v 0.006 C 9.575,22.711 9.153,23.115 8.507,23.261 7.862,23.396 6.987,23.263 6.112,22.797 5.144,22.261 3.994,22.328 3.255,22.195 2.886,22.129 2.644,21.994 2.532,21.794 2.421,21.595 2.419,21.193 2.655,20.564 V 20.561 L 2.657,20.558 C 2.774,20.224 2.687,19.805 2.63,19.439 2.575,19.038 2.547,18.73 2.673,18.499 2.833,18.165 3.069,18.1 3.362,17.966 3.657,17.831 4.003,17.764 4.278,17.497 H 4.28 V 17.494 C 4.536,17.226 4.725,16.893 4.948,16.656 5.138,16.455 5.328,16.32 5.611,16.32 Z M 12.77,7.246 C 12.335,7.447 11.825,7.781 11.282,7.781 10.74,7.781 10.312,7.514 10.003,7.315 9.848,7.181 9.723,7.047 9.629,6.98 9.465,6.846 9.485,6.646 9.555,6.646 9.664,6.662 9.684,6.781 9.754,6.847 9.85,6.913 9.969,7.046 10.115,7.18 c 0.291,0.2 0.68,0.467 1.166,0.467 0.485,0 1.053,-0.267 1.398,-0.466 0.195,-0.135 0.445,-0.334 0.648,-0.467 0.156,-0.137 0.149,-0.268 0.279,-0.268 0.129,0.016 0.034,0.134 -0.147,0.333 -0.181,0.135 -0.461,0.335 -0.69,0.468 V 7.246 Z M 11.688,5.662 V 5.64 c -0.006,-0.019 0.013,-0.042 0.029,-0.05 0.074,-0.043 0.18,-0.027 0.26,0.004 0.063,0 0.16,0.067 0.15,0.135 C 12.121,5.778 12.042,5.795 11.992,5.795 11.937,5.795 11.9,5.752 11.851,5.727 11.799,5.709 11.705,5.719 11.688,5.662 Z m -0.551,0 c -0.02,0.058 -0.113,0.049 -0.166,0.066 -0.047,0.025 -0.086,0.068 -0.139,0.068 -0.051,0 -0.131,-0.019 -0.137,-0.068 -0.009,-0.066 0.088,-0.133 0.15,-0.133 0.081,-0.031 0.184,-0.047 0.259,-0.005 0.019,0.009 0.036,0.03 0.03,0.05 v 0.021 h 0.003 z"
         id="path4" />
    </g>
  </g>
</svg>
