<?xml version="1.0" ?><svg viewBox="0 0 128 128" xmlns="http://www.w3.org/2000/svg"><defs><style>.cls-1{fill:#7ad0cb;}.cls-2{fill:#4dbab4;}.cls-3{fill:#c3edf5;}.cls-4{fill:#4d91bb;}.cls-5{fill:none;stroke:#4d91bb;stroke-miterlimit:10;stroke-width:8px;}</style></defs><title/><g data-name="11 Hosting Service" id="_11_Hosting_Service"><rect class="cls-1" height="69" width="8" x="60" y="32.5"/><rect class="cls-1" height="8" width="90" x="19" y="97.5"/><path class="cls-2" d="M68,91.26a10.85,10.85,0,0,0-8,0V97.5H53.76a10.85,10.85,0,0,0,0,8H74.24a10.85,10.85,0,0,0,0-8H68Z"/><rect class="cls-3" height="30" width="96" x="16" y="17.5"/><rect class="cls-3" height="30" width="96" x="16" y="53.5"/><circle class="cls-4" cx="64" cy="101.5" r="9"/><line class="cls-5" x1="100.02" x2="52.02" y1="32.5" y2="32.5"/><line class="cls-5" x1="100.02" x2="52.02" y1="68.5" y2="68.5"/><circle class="cls-4" cx="32.2" cy="32.5" r="4"/><circle class="cls-4" cx="32.2" cy="68.5" r="4"/><polygon class="cls-2" points="60 47.5 68 50.19 68 47.5 60 47.5"/><polygon class="cls-2" points="60 83.5 68 86.19 68 83.5 60 83.5"/></g></svg>